<?xml version="1.0" encoding="UTF-8" standalone="no"?>
<svg
   xmlns:dc="http://purl.org/dc/elements/1.1/"
   xmlns:cc="http://creativecommons.org/ns#"
   xmlns:rdf="http://www.w3.org/1999/02/22-rdf-syntax-ns#"
   xmlns:svg="http://www.w3.org/2000/svg"
   xmlns="http://www.w3.org/2000/svg"
   xmlns:sodipodi="http://sodipodi.sourceforge.net/DTD/sodipodi-0.dtd"
   xmlns:inkscape="http://www.inkscape.org/namespaces/inkscape"
   style="font-style:normal;font-weight:normal;font-size:12px;font-family:Dialog;color-interpolation:auto;fill:#000000;fill-opacity:1;stroke:#000000;stroke-width:1;stroke-linecap:square;stroke-linejoin:miter;stroke-miterlimit:10;stroke-dasharray:none;stroke-dashoffset:0;stroke-opacity:1;color-rendering:auto;image-rendering:auto;shape-rendering:auto;text-rendering:auto"
   id="svg5515"
   version="1.1"
   inkscape:version="0.91 r13725"
   sodipodi:docname="weakref-structure.svg"
   width="458.23697"
   height="334">
  <metadata
     id="metadata5740">
    <rdf:RDF>
      <cc:Work
         rdf:about="">
        <dc:format>image/svg+xml</dc:format>
        <dc:type
           rdf:resource="http://purl.org/dc/dcmitype/StillImage" />
        <dc:title></dc:title>
      </cc:Work>
    </rdf:RDF>
  </metadata>
  <sodipodi:namedview
     pagecolor="#ffffff"
     bordercolor="#666666"
     borderopacity="1"
     objecttolerance="10"
     gridtolerance="10"
     guidetolerance="10"
     inkscape:pageopacity="0"
     inkscape:pageshadow="2"
     inkscape:window-width="1920"
     inkscape:window-height="1019"
     id="namedview5738"
     showgrid="false"
     fit-margin-top="0"
     fit-margin-left="0"
     fit-margin-right="0"
     fit-margin-bottom="0"
     inkscape:zoom="1"
     inkscape:cx="46"
     inkscape:cy="301.42919"
     inkscape:window-x="-9"
     inkscape:window-y="-9"
     inkscape:window-maximized="1"
     inkscape:current-layer="svg5515" />
  <!--Generated by the Batik Graphics2D SVG Generator-->
  <defs
     id="genericDefs" />
  <g
     id="g5518"
     transform="translate(-4,-2)">
    <defs
       id="defs1">
      <clipPath
         clipPathUnits="userSpaceOnUse"
         id="clipPath1">
        <path
           d="M 4,2 503,2 503,336 4,336 4,2 Z"
           id="path5522"
           inkscape:connector-curvature="0" />
      </clipPath>
      <clipPath
         clipPathUnits="userSpaceOnUse"
         id="clipPath2">
        <path
           d="m -108,-270 499,0 0,334 -499,0 0,-334 z"
           id="path5525"
           inkscape:connector-curvature="0" />
      </clipPath>
      <clipPath
         clipPathUnits="userSpaceOnUse"
         id="clipPath3">
        <path
           d="m -137.5,-274 499,0 0,334 -499,0 0,-334 z"
           id="path5528"
           inkscape:connector-curvature="0" />
      </clipPath>
      <clipPath
         clipPathUnits="userSpaceOnUse"
         id="clipPath4">
        <path
           d="m -296.1371,307.3721 -2.6613,-498.9929 333.9953,-1.7813 2.6613,498.9929 -333.9953,1.7813 z"
           id="path5531"
           inkscape:connector-curvature="0" />
      </clipPath>
      <clipPath
         clipPathUnits="userSpaceOnUse"
         id="clipPath5">
        <path
           d="m -295,-268 499,0 0,334 -499,0 0,-334 z"
           id="path5534"
           inkscape:connector-curvature="0" />
      </clipPath>
      <clipPath
         clipPathUnits="userSpaceOnUse"
         id="clipPath6">
        <path
           d="m -318.5,-292 499,0 0,334 -499,0 0,-334 z"
           id="path5537"
           inkscape:connector-curvature="0" />
      </clipPath>
      <clipPath
         clipPathUnits="userSpaceOnUse"
         id="clipPath7">
        <path
           d="m -226,-1 499,0 0,334 -499,0 0,-334 z"
           id="path5540"
           inkscape:connector-curvature="0" />
      </clipPath>
      <clipPath
         clipPathUnits="userSpaceOnUse"
         id="clipPath8">
        <path
           d="m -259,-14.5 499,0 0,334 -499,0 0,-334 z"
           id="path5543"
           inkscape:connector-curvature="0" />
      </clipPath>
      <clipPath
         clipPathUnits="userSpaceOnUse"
         id="clipPath9">
        <path
           d="m -349,-200 499,0 0,334 -499,0 0,-334 z"
           id="path5546"
           inkscape:connector-curvature="0" />
      </clipPath>
      <clipPath
         clipPathUnits="userSpaceOnUse"
         id="clipPath10">
        <path
           d="m -357,-107 499,0 0,334 -499,0 0,-334 z"
           id="path5549"
           inkscape:connector-curvature="0" />
      </clipPath>
      <clipPath
         clipPathUnits="userSpaceOnUse"
         id="clipPath11">
        <path
           d="m -376.5,-129.5 499,0 0,334 -499,0 0,-334 z"
           id="path5552"
           inkscape:connector-curvature="0" />
      </clipPath>
      <clipPath
         clipPathUnits="userSpaceOnUse"
         id="clipPath12">
        <path
           d="m -201,-117 499,0 0,334 -499,0 0,-334 z"
           id="path5555"
           inkscape:connector-curvature="0" />
      </clipPath>
      <clipPath
         clipPathUnits="userSpaceOnUse"
         id="clipPath13">
        <path
           d="m -214.5,-131.5 499,0 0,334 -499,0 0,-334 z"
           id="path5558"
           inkscape:connector-curvature="0" />
      </clipPath>
      <clipPath
         clipPathUnits="userSpaceOnUse"
         id="clipPath14">
        <path
           d="M 281.0521,18.132 -184.2994,198.268 -304.8714,-113.2097 160.4801,-293.3458 281.0521,18.132 Z"
           id="path5561"
           inkscape:connector-curvature="0" />
      </clipPath>
      <clipPath
         clipPathUnits="userSpaceOnUse"
         id="clipPath15">
        <path
           d="m -140.4984,355.7112 6.1411,-498.9622 333.9747,4.1104 -6.1411,498.9622 -333.9747,-4.1104 z"
           id="path5564"
           inkscape:connector-curvature="0" />
      </clipPath>
      <clipPath
         clipPathUnits="userSpaceOnUse"
         id="clipPath16">
        <path
           d="M 131.5581,402.9708 -287.2124,131.618 -105.5854,-148.6812 313.185,122.6716 131.5581,402.9708 Z"
           id="path5567"
           inkscape:connector-curvature="0" />
      </clipPath>
      <clipPath
         clipPathUnits="userSpaceOnUse"
         id="clipPath17">
        <path
           d="m 284.0443,157.3695 -442.0842,231.4358 -154.909,-295.904 442.0842,-231.4359 154.909,295.9041 z"
           id="path5570"
           inkscape:connector-curvature="0" />
      </clipPath>
      <clipPath
         clipPathUnits="userSpaceOnUse"
         id="clipPath18">
        <path
           d="M 1.3168,306.474 -437.3783,68.6766 -278.2113,-224.959 160.4838,12.8384 1.3168,306.474 Z"
           id="path5573"
           inkscape:connector-curvature="0" />
      </clipPath>
      <clipPath
         clipPathUnits="userSpaceOnUse"
         id="clipPath19">
        <path
           d="m -60.8131,-180 499,0 0,334 -499,0 0,-334 z"
           id="path5576"
           inkscape:connector-curvature="0" />
      </clipPath>
      <clipPath
         clipPathUnits="userSpaceOnUse"
         id="clipPath20">
        <path
           d="m -1,-53 499,0 0,334 -499,0 0,-334 z"
           id="path5579"
           inkscape:connector-curvature="0" />
      </clipPath>
      <clipPath
         clipPathUnits="userSpaceOnUse"
         id="clipPath21">
        <path
           d="m -24,-77 499,0 0,334 -499,0 0,-334 z"
           id="path5582"
           inkscape:connector-curvature="0" />
      </clipPath>
    </defs>
    <g
       style="color-interpolation:linearRGB;fill:#ffffff;stroke:#ffffff;color-rendering:optimizeQuality;image-rendering:optimizeQuality;text-rendering:geometricPrecision"
       id="g5584">
      <rect
         x="0"
         y="0"
         width="0"
         style="stroke:none"
         height="0"
         id="rect5586"
         clip-path="url(#clipPath1)" />
    </g>
    <g
       transform="translate(112,272)"
       style="color-interpolation:linearRGB;fill:#7f7f7f;stroke:#7f7f7f;color-rendering:optimizeQuality;image-rendering:optimizeQuality;text-rendering:geometricPrecision"
       id="g5588">
      <rect
         x="0"
         y="0"
         width="106"
         style="stroke:none"
         rx="10"
         ry="10"
         height="59"
         id="rect5590"
         clip-path="url(#clipPath2)" />
    </g>
    <g
       transform="translate(112,272)"
       style="color-interpolation:linearRGB;stroke-width:2;stroke-linecap:butt;stroke-linejoin:bevel;stroke-dasharray:3, 2;color-rendering:optimizeQuality;image-rendering:optimizeQuality;text-rendering:geometricPrecision"
       id="g5592">
      <rect
         x="0"
         y="0"
         width="106"
         style="fill:none"
         rx="10"
         ry="10"
         height="59"
         id="rect5594"
         clip-path="url(#clipPath2)" />
    </g>
    <g
       style="font-weight:bold;font-size:14px;font-family:Arial;color-interpolation:linearRGB;fill:#ffffff;stroke:#ffffff;stroke-width:2;stroke-linecap:butt;stroke-linejoin:bevel;stroke-dasharray:3, 2;color-rendering:optimizeQuality;image-rendering:optimizeQuality;text-rendering:optimizeLegibility"
       transform="translate(141.5,276)"
       id="g5596">
      <path
         d="m 4.2812,14 0,-8.3281 -2.9843,0 0,-1.6875 7.9687,0 0,1.6875 -2.9687,0 0,8.3281 -2.0157,0 z M 11.9893,8.9531 10.2549,8.6406 q 0.2812,-1.0468 1,-1.5547 0.7187,-0.5078 2.1406,-0.5078 1.2813,0 1.9141,0.3047 0.6328,0.3047 0.8828,0.7734 0.25,0.4688 0.25,1.7188 l -0.0156,2.2344 q 0,0.9687 0.0937,1.4218 0.0938,0.4532 0.3438,0.9688 l -1.8907,0 q -0.0781,-0.1875 -0.1875,-0.5625 -0.0468,-0.1719 -0.0781,-0.2344 -0.4844,0.4844 -1.0469,0.7266 -0.5625,0.2422 -1.2031,0.2422 -1.1094,0 -1.7578,-0.6094 -0.6484,-0.6094 -0.6484,-1.5469 0,-0.6094 0.2968,-1.0937 0.2969,-0.4844 0.8203,-0.7422 0.5235,-0.2578 1.5235,-0.4453 1.3437,-0.25 1.875,-0.4688 l 0,-0.1875 q 0,-0.5625 -0.2735,-0.7969 -0.2734,-0.2343 -1.039,-0.2343 -0.5156,0 -0.7969,0.2031 -0.2812,0.2031 -0.4687,0.7031 z m 2.5781,1.5625 q -0.375,0.125 -1.1719,0.2969 -0.7969,0.1719 -1.0469,0.3281 -0.375,0.2656 -0.375,0.6719 0,0.4063 0.2969,0.7031 0.2969,0.2969 0.7656,0.2969 0.5157,0 1,-0.3437 0.3438,-0.2657 0.4532,-0.6407 0.0781,-0.2343 0.0781,-0.9375 l 0,-0.375 z M 20.1816,14 l -1.9218,0 0,-7.2656 1.7812,0 0,1.0312 q 0.4688,-0.7187 0.8281,-0.9531 0.3594,-0.2344 0.8282,-0.2344 0.6562,0 1.2656,0.3594 l -0.5938,1.6719 q -0.4843,-0.3125 -0.9062,-0.3125 -0.4063,0 -0.6797,0.2265 Q 20.5098,8.75 20.3457,9.3281 20.1816,9.9062 20.1816,11.75 l 0,2.25 z m 3.4327,0.4844 2.1875,0.2656 q 0.0625,0.375 0.2656,0.5156 0.2656,0.2188 0.8594,0.2188 0.75,0 1.125,-0.2344 0.25,-0.1562 0.375,-0.4844 0.0937,-0.2344 0.0937,-0.875 l 0,-1.0625 Q 27.6611,14 26.3486,14 q -1.4687,0 -2.3125,-1.2344 -0.6718,-0.9844 -0.6718,-2.4375 0,-1.8281 0.875,-2.789 0.875,-0.961 2.1875,-0.961 1.3437,0 2.2187,1.1875 l 0,-1.0312 1.7969,0 0,6.5156 q 0,1.2969 -0.211,1.9297 -0.2109,0.6328 -0.5937,0.9922 -0.3828,0.3593 -1.0234,0.5703 -0.6407,0.2109 -1.6094,0.2109 -1.8594,0 -2.625,-0.6328 -0.7656,-0.6328 -0.7656,-1.6015 0,-0.1094 0,-0.2344 z m 1.7187,-4.2656 q 0,1.1562 0.4453,1.6953 0.4453,0.539 1.1016,0.539 0.7031,0 1.1875,-0.5547 0.4844,-0.5546 0.4844,-1.6328 0,-1.125 -0.461,-1.6718 -0.4609,-0.5469 -1.1797,-0.5469 -0.6875,0 -1.1328,0.539 -0.4453,0.5391 -0.4453,1.6329 z m 11.208,1.4687 1.9219,0.3281 q -0.375,1.0469 -1.1719,1.6016 -0.7969,0.5547 -1.9844,0.5547 -1.8906,0 -2.8125,-1.25 -0.7187,-0.9844 -0.7187,-2.5 0,-1.7969 0.9453,-2.8203 0.9453,-1.0235 2.3984,-1.0235 1.6094,0 2.5469,1.0703 0.9375,1.0704 0.8906,3.2735 l -4.8125,0 q 0.0313,0.8593 0.4766,1.3359 0.4453,0.4766 1.1016,0.4766 0.4531,0 0.7578,-0.25 0.3047,-0.25 0.4609,-0.7969 z M 36.6504,9.75 q -0.0156,-0.8438 -0.4219,-1.2734 -0.4062,-0.4297 -1,-0.4297 -0.625,0 -1.0469,0.4531 -0.4062,0.4688 -0.3906,1.25 l 2.8594,0 z m 6.8017,-3.0156 0,1.5312 -1.3125,0 0,2.9375 q 0,0.875 0.0391,1.0235 0.0391,0.1484 0.1719,0.25 0.1328,0.1015 0.3359,0.1015 0.2656,0 0.7656,-0.1875 l 0.1563,1.4844 q -0.6563,0.2969 -1.5156,0.2969 -0.5157,0 -0.9297,-0.1797 -0.4141,-0.1797 -0.6094,-0.4531 -0.1953,-0.2735 -0.2734,-0.7422 -0.0625,-0.3438 -0.0625,-1.3594 l 0,-3.1719 -0.875,0 0,-1.5312 0.875,0 0,-1.4375 1.9218,-1.125 0,2.5625 1.3125,0 z"
         style="stroke:none"
         id="path5598"
         clip-path="url(#clipPath3)"
         inkscape:connector-curvature="0" />
      <path
         d="m 0.6094,26.0469 q 0,-1.5313 0.4531,-2.5625 Q 1.4062,22.7188 2,22.1094 2.5938,21.5 3.2969,21.2031 q 0.9375,-0.3906 2.1562,-0.3906 2.2188,0 3.5469,1.375 1.3281,1.375 1.3281,3.8125 0,2.4219 -1.3203,3.7969 -1.3203,1.375 -3.5234,1.375 -2.2344,0 -3.5547,-1.3672 -1.3203,-1.3672 -1.3203,-3.7578 z m 2.0781,-0.0625 q 0,1.7031 0.7891,2.5781 0.789,0.875 1.9922,0.875 1.2187,0 1.9921,-0.8672 0.7735,-0.8672 0.7735,-2.6172 0,-1.7187 -0.75,-2.5703 -0.75,-0.8516 -2.0156,-0.8516 -1.25,0 -2.0157,0.8594 -0.7656,0.8594 -0.7656,2.5938 z m 9.124,5.0156 0,-10.0156 1.9219,0 0,3.6094 q 0.8906,-1.0157 2.1094,-1.0157 1.3281,0 2.1953,0.961 0.8672,0.9609 0.8672,2.7578 0,1.8593 -0.8907,2.8672 -0.8906,1.0078 -2.1406,1.0078 -0.625,0 -1.2344,-0.3125 -0.6093,-0.3125 -1.0468,-0.9219 l 0,1.0625 -1.7813,0 z m 1.9063,-3.7812 q 0,1.125 0.3593,1.6562 0.5,0.7656 1.3282,0.7656 0.625,0 1.0781,-0.539 0.4531,-0.5391 0.4531,-1.711 0,-1.25 -0.4531,-1.7968 -0.4531,-0.5469 -1.1563,-0.5469 -0.6875,0 -1.1484,0.539 -0.4609,0.5391 -0.4609,1.6329 z m 6.6924,-4.4688 0,-1.7656 1.9218,0 0,1.7656 -1.9218,0 z m 1.9218,0.9844 0,7.0468 q 0,1.375 -0.1875,1.9454 -0.1875,0.5703 -0.7031,0.8984 -0.5156,0.3281 -1.3125,0.3281 -0.2812,0 -0.6172,-0.0547 -0.3359,-0.0546 -0.7109,-0.164 l 0.3281,-1.6406 q 0.1406,0.0312 0.2578,0.0468 0.1172,0.0156 0.2266,0.0156 0.2969,0 0.4844,-0.125 0.1875,-0.125 0.25,-0.3046 0.0625,-0.1797 0.0625,-1.0547 l 0,-6.9375 1.9218,0 z m 6.2022,4.9531 1.9219,0.3281 q -0.375,1.0469 -1.1719,1.6016 -0.7969,0.5547 -1.9844,0.5547 -1.8906,0 -2.8125,-1.25 -0.7187,-0.9844 -0.7187,-2.5 0,-1.7969 0.9453,-2.8203 0.9453,-1.0235 2.3984,-1.0235 1.6094,0 2.5469,1.0703 0.9375,1.0704 0.8906,3.2735 l -4.8125,0 q 0.0313,0.8593 0.4766,1.3359 0.4453,0.4766 1.1015,0.4766 0.4532,0 0.7578,-0.25 0.3047,-0.25 0.461,-0.7969 z M 28.6436,26.75 q -0.0157,-0.8438 -0.4219,-1.2734 -0.4063,-0.4297 -1,-0.4297 -0.625,0 -1.0469,0.4531 -0.4062,0.4688 -0.3906,1.25 l 2.8594,0 z m 9.8017,-0.8594 -1.8906,0.3438 q -0.0938,-0.5782 -0.4297,-0.8594 -0.3359,-0.2812 -0.8828,-0.2812 -0.7188,0 -1.1406,0.4921 -0.4219,0.4922 -0.4219,1.6485 0,1.2968 0.4297,1.8281 0.4297,0.5313 1.164,0.5313 0.5469,0 0.8985,-0.3126 0.3515,-0.3124 0.4922,-1.0624 l 1.8906,0.3124 q -0.2969,1.3126 -1.1328,1.9766 -0.836,0.6641 -2.2422,0.6641 -1.5938,0 -2.5391,-1.0078 -0.9453,-1.0079 -0.9453,-2.7891 0,-1.7969 0.9531,-2.7969 0.9532,-1 2.5782,-1 1.3125,0 2.1015,0.5703 0.7891,0.5704 1.1172,1.7422 z m 4.7861,-2.1562 0,1.5312 -1.3125,0 0,2.9375 q 0,0.875 0.0391,1.0235 0.0391,0.1484 0.1719,0.25 0.1328,0.1015 0.3359,0.1015 0.2656,0 0.7656,-0.1875 l 0.1563,1.4844 q -0.6563,0.2969 -1.5156,0.2969 -0.5157,0 -0.9297,-0.1797 -0.4141,-0.1797 -0.6094,-0.4531 -0.1953,-0.2735 -0.2734,-0.7422 -0.0625,-0.3438 -0.0625,-1.3594 l 0,-3.1719 -0.875,0 0,-1.5312 0.875,0 0,-1.4375 1.9218,-1.125 0,2.5625 1.3125,0 z"
         style="stroke:none"
         id="path5600"
         clip-path="url(#clipPath3)"
         inkscape:connector-curvature="0" />
    </g>
    <g
       transform="matrix(-0.0053337,0.99998578,-0.99998578,-0.0053337,309.78833,299.77214)"
       style="color-interpolation:linearRGB;fill:#404040;stroke:#404040;stroke-width:2;stroke-linecap:butt;color-rendering:optimizeQuality;image-rendering:optimizeQuality;text-rendering:geometricPrecision"
       id="g5602">
      <path
         d="M 2.5,0 0,6.5 l 5,0 z"
         style="stroke:none"
         id="path5604"
         clip-path="url(#clipPath4)"
         inkscape:connector-curvature="0" />
      <path
         d="M 2.5,0 0,6.5 l 5,0 z"
         style="fill:none"
         id="path5606"
         clip-path="url(#clipPath4)"
         inkscape:connector-curvature="0" />
    </g>
    <g
       style="color-interpolation:linearRGB;fill:#404040;stroke:#404040;stroke-width:2;stroke-linecap:butt;color-rendering:optimizeQuality;image-rendering:optimizeQuality;text-rendering:geometricPrecision"
       id="g5608">
      <line
         x1="218"
         x2="309.77499"
         y1="301.78271"
         style="fill:none"
         y2="302.27209"
         id="line5610"
         clip-path="url(#clipPath1)" />
    </g>
    <g
       transform="translate(299,270)"
       style="color-interpolation:linearRGB;fill:#9ddb53;stroke:#9ddb53;color-rendering:optimizeQuality;image-rendering:optimizeQuality;text-rendering:geometricPrecision"
       id="g5612">
      <path
         d="M 21.4,0 107,0 85.6,65 0,65 Z"
         style="stroke:none"
         id="path5614"
         clip-path="url(#clipPath5)"
         inkscape:connector-curvature="0" />
    </g>
    <g
       transform="translate(299,270)"
       style="color-interpolation:linearRGB;stroke-width:2;stroke-linecap:butt;color-rendering:optimizeQuality;image-rendering:optimizeQuality;text-rendering:geometricPrecision"
       id="g5616">
      <path
         d="M 21.4,0 107,0 85.6,65 0,65 Z"
         style="fill:none"
         id="path5618"
         clip-path="url(#clipPath5)"
         inkscape:connector-curvature="0" />
    </g>
    <g
       transform="translate(322.5,294)"
       style="font-weight:bold;font-size:14px;font-family:Arial;color-interpolation:linearRGB;stroke-width:2;stroke-linecap:butt;color-rendering:optimizeQuality;image-rendering:optimizeQuality;text-rendering:optimizeLegibility"
       id="g5620">
      <path
         d="m 1.0312,14 0,-10.0156 2.0157,0 0,3.9375 3.9687,0 0,-3.9375 2.0156,0 0,10.0156 -2.0156,0 0,-4.375 -3.9687,0 0,4.375 -2.0157,0 z m 9.6417,-3.7344 q 0,-0.9531 0.4687,-1.8515 0.4688,-0.8985 1.3359,-1.3672 0.8672,-0.4688 1.9297,-0.4688 1.6563,0 2.7032,1.0703 1.0468,1.0704 1.0468,2.6954 0,1.6562 -1.0625,2.7421 -1.0625,1.086 -2.6718,1.086 -1,0 -1.9063,-0.4531 -0.9062,-0.4532 -1.375,-1.3282 -0.4687,-0.875 -0.4687,-2.125 z m 1.9687,0.1094 q 0,1.0781 0.5156,1.6484 0.5157,0.5704 1.2657,0.5704 0.75,0 1.2578,-0.5704 0.5078,-0.5703 0.5078,-1.664 0,-1.0625 -0.5078,-1.6406 -0.5078,-0.5782 -1.2578,-0.5782 -0.75,0 -1.2657,0.5782 -0.5156,0.5781 -0.5156,1.6562 z m 7.0205,3.625 0,-10.0156 1.9219,0 0,10.0156 -1.9219,0 z m 10.5459,0 -1.7812,0 0,-1.0625 q -0.4375,0.625 -1.0469,0.9297 -0.6094,0.3047 -1.2188,0.3047 -1.25,0 -2.1406,-1.0157 -0.8906,-1.0156 -0.8906,-2.8124 0,-1.8438 0.8672,-2.8047 0.8672,-0.961 2.1953,-0.961 1.2187,0 2.1094,1.0157 l 0,-3.6094 1.9062,0 0,10.0156 z m -5.125,-3.7812 q 0,1.1562 0.3281,1.6718 0.4688,0.75 1.2969,0.75 0.6563,0 1.125,-0.5625 0.4688,-0.5625 0.4688,-1.6875 0,-1.25 -0.4532,-1.7968 -0.4531,-0.5469 -1.1562,-0.5469 -0.6875,0 -1.1485,0.539 -0.4609,0.5391 -0.4609,1.6329 z m 7.0205,-4.4688 0,-1.7656 1.9219,0 0,1.7656 -1.9219,0 z m 0,8.25 0,-7.2656 1.9219,0 0,7.2656 -1.9219,0 z m 10.499,0 -1.9218,0 0,-3.7031 q 0,-1.1719 -0.125,-1.5235 -0.125,-0.3515 -0.3985,-0.539 -0.2734,-0.1875 -0.664,-0.1875 -0.5,0 -0.8985,0.2734 -0.3984,0.2735 -0.5468,0.7266 -0.1485,0.4531 -0.1485,1.6719 l 0,3.2812 -1.9219,0 0,-7.2656 1.7969,0 0,1.0781 q 0.9375,-1.2344 2.3906,-1.2344 0.625,0 1.1563,0.2266 0.5312,0.2265 0.7969,0.5859 0.2656,0.3594 0.375,0.8047 0.1093,0.4453 0.1093,1.2891 l 0,4.5156 z m 1.7705,0.4844 2.1875,0.2656 q 0.0625,0.375 0.2657,0.5156 0.2656,0.2188 0.8593,0.2188 0.75,0 1.125,-0.2344 0.25,-0.1562 0.375,-0.4844 0.0938,-0.2344 0.0938,-0.875 l 0,-1.0625 Q 48.4199,14 47.1074,14 45.6387,14 44.7949,12.7656 44.123,11.7812 44.123,10.3281 q 0,-1.8281 0.875,-2.789 0.875,-0.961 2.1875,-0.961 1.3438,0 2.2188,1.1875 l 0,-1.0312 1.7969,0 0,6.5156 q 0,1.2969 -0.211,1.9297 -0.2109,0.6328 -0.5937,0.9922 -0.3828,0.3593 -1.0235,0.5703 -0.6406,0.2109 -1.6093,0.2109 -1.8594,0 -2.625,-0.6328 -0.7657,-0.6328 -0.7657,-1.6015 0,-0.1094 0,-0.2344 z m 1.7188,-4.2656 q 0,1.1562 0.4453,1.6953 0.4453,0.539 1.1016,0.539 0.7031,0 1.1875,-0.5547 0.4843,-0.5546 0.4843,-1.6328 0,-1.125 -0.4609,-1.6718 -0.4609,-0.5469 -1.1797,-0.5469 -0.6875,0 -1.1328,0.539 -0.4453,0.5391 -0.4453,1.6329 z m 6.333,1.7031 1.9219,-0.2813 q 0.125,0.5469 0.5,0.8438 0.375,0.2968 1.0625,0.2968 0.7344,0 1.1094,-0.2812 0.2656,-0.1875 0.2656,-0.5156 0,-0.2188 -0.1406,-0.3594 -0.1407,-0.1406 -0.6407,-0.25 -2.3281,-0.5156 -2.9531,-0.9375 -0.8594,-0.5937 -0.8594,-1.6406 0,-0.9375 0.7422,-1.5781 0.7422,-0.6407 2.3203,-0.6407 1.4844,0 2.211,0.4844 0.7265,0.4844 0.9922,1.4375 L 57.1436,8.8281 Q 57.0342,8.4062 56.7061,8.1797 56.3779,7.9531 55.7842,7.9531 q -0.7656,0 -1.0938,0.2188 -0.2187,0.1406 -0.2187,0.3906 0,0.2031 0.2031,0.3437 0.25,0.1876 1.7891,0.5391 1.539,0.3516 2.1484,0.8516 0.5938,0.5156 0.5938,1.4375 0,1 -0.836,1.7187 -0.8359,0.7188 -2.4609,0.7188 -1.4844,0 -2.3516,-0.6094 -0.8672,-0.6094 -1.1328,-1.6406 z"
         style="stroke:none"
         id="path5622"
         clip-path="url(#clipPath6)"
         inkscape:connector-curvature="0" />
    </g>
    <g
       transform="translate(230,3)"
       style="color-interpolation:linearRGB;fill:#8484ef;stroke:#8484ef;color-rendering:optimizeQuality;image-rendering:optimizeQuality;text-rendering:geometricPrecision"
       id="g5624">
      <rect
         x="0"
         y="0"
         width="121"
         style="stroke:none"
         height="61"
         id="rect5626"
         clip-path="url(#clipPath7)" />
    </g>
    <g
       transform="translate(230,3)"
       style="color-interpolation:linearRGB;stroke-width:2;stroke-linecap:butt;color-rendering:optimizeQuality;image-rendering:optimizeQuality;text-rendering:geometricPrecision"
       id="g5628">
      <rect
         x="0"
         y="0"
         width="121"
         style="fill:none"
         height="61"
         id="rect5630"
         clip-path="url(#clipPath7)" />
    </g>
    <g
       style="font-weight:bold;font-size:14px;font-family:Arial;color-interpolation:linearRGB;fill:#ffffff;stroke:#ffffff;stroke-width:2;stroke-linecap:butt;color-rendering:optimizeQuality;image-rendering:optimizeQuality;text-rendering:optimizeLegibility"
       transform="translate(263,16.5)"
       id="g5632">
      <path
         d="M 0.5,10.7344 2.4688,10.5469 Q 2.6562,11.5312 3.1953,12 q 0.5391,0.4688 1.4609,0.4688 0.9844,0 1.4766,-0.4141 0.4922,-0.4141 0.4922,-0.9609 0,-0.3594 -0.2031,-0.6094 Q 6.2188,10.2344 5.6875,10.0469 5.3438,9.9219 4.0781,9.6094 2.4531,9.2031 1.7969,8.625 0.875,7.7969 0.875,6.6094 0.875,5.8438 1.3047,5.1719 1.7344,4.5 2.5547,4.1562 3.375,3.8125 4.5312,3.8125 q 1.875,0 2.8282,0.8281 0.9531,0.8282 1.0156,2.2032 L 6.3438,6.9375 Q 6.2188,6.1562 5.7891,5.8203 5.3594,5.4844 4.5,5.4844 q -0.875,0 -1.375,0.3594 -0.3281,0.2343 -0.3281,0.625 0,0.3593 0.3125,0.6093 0.375,0.3125 1.8515,0.6641 1.4766,0.3516 2.1875,0.7266 0.711,0.375 1.1094,1.0156 0.3984,0.6406 0.3984,1.5937 0,0.8594 -0.4765,1.6172 -0.4766,0.7578 -1.3516,1.1172 -0.875,0.3594 -2.1875,0.3594 -1.9062,0 -2.9218,-0.875 Q 0.7031,12.4219 0.5,10.7344 Z m 14.041,0.9531 1.9219,0.3281 q -0.375,1.0469 -1.1719,1.6016 -0.7969,0.5547 -1.9844,0.5547 -1.8906,0 -2.8125,-1.25 -0.7187,-0.9844 -0.7187,-2.5 0,-1.7969 0.9453,-2.8203 0.9453,-1.0235 2.3984,-1.0235 1.6094,0 2.5469,1.0703 0.9375,1.0704 0.8906,3.2735 l -4.8125,0 q 0.0313,0.8593 0.4766,1.3359 0.4453,0.4766 1.1016,0.4766 0.4531,0 0.7578,-0.25 0.3047,-0.25 0.4609,-0.7969 z M 14.6504,9.75 q -0.0156,-0.8438 -0.4219,-1.2734 -0.4062,-0.4297 -1,-0.4297 -0.625,0 -1.0469,0.4531 -0.4062,0.4688 -0.3906,1.25 l 2.8594,0 z m 5.3174,4.25 -1.9219,0 0,-7.2656 1.7812,0 0,1.0312 q 0.4688,-0.7187 0.8282,-0.9531 0.3593,-0.2344 0.8281,-0.2344 0.6562,0 1.2656,0.3594 L 22.1553,8.6094 Q 21.6709,8.2969 21.249,8.2969 q -0.4062,0 -0.6797,0.2265 -0.2734,0.2266 -0.4375,0.8047 -0.164,0.5781 -0.164,2.4219 l 0,2.25 z m 5.6045,0 -2.9219,-7.2656 2.0156,0 1.3594,3.7031 0.4062,1.25 q 0.1563,-0.4844 0.1875,-0.625 0.1094,-0.3125 0.2188,-0.625 l 1.375,-3.7031 1.9687,0 -2.875,7.2656 -1.7343,0 z m 5.7861,-8.25 0,-1.7656 1.9219,0 0,1.7656 -1.9219,0 z m 0,8.25 0,-7.2656 1.9219,0 0,7.2656 -1.9219,0 z M 41.5762,8.8906 39.6855,9.2344 Q 39.5918,8.6562 39.2559,8.375 38.9199,8.0938 38.373,8.0938 q -0.7187,0 -1.1406,0.4921 -0.4219,0.4922 -0.4219,1.6485 0,1.2968 0.4297,1.8281 0.4297,0.5313 1.1641,0.5313 0.5469,0 0.8984,-0.3126 0.3516,-0.3124 0.4922,-1.0624 l 1.8906,0.3124 q -0.2968,1.3126 -1.1328,1.9766 -0.8359,0.6641 -2.2422,0.6641 -1.5937,0 -2.539,-1.0078 -0.9453,-1.0079 -0.9453,-2.7891 0,-1.7969 0.9531,-2.7969 0.9531,-1 2.5781,-1 1.3125,0 2.1016,0.5703 0.789,0.5704 1.1172,1.7422 z m 5.6611,2.7969 1.9219,0.3281 q -0.375,1.0469 -1.1719,1.6016 -0.7969,0.5547 -1.9844,0.5547 -1.8906,0 -2.8125,-1.25 -0.7187,-0.9844 -0.7187,-2.5 0,-1.7969 0.9453,-2.8203 0.9453,-1.0235 2.3984,-1.0235 1.6094,0 2.5469,1.0703 0.9375,1.0704 0.8906,3.2735 l -4.8125,0 q 0.0313,0.8593 0.4766,1.3359 0.4453,0.4766 1.1016,0.4766 0.4531,0 0.7578,-0.25 0.3047,-0.25 0.4609,-0.7969 z M 47.3467,9.75 q -0.0156,-0.8438 -0.4219,-1.2734 -0.4062,-0.4297 -1,-0.4297 -0.625,0 -1.0469,0.4531 -0.4062,0.4688 -0.3906,1.25 l 2.8594,0 z"
         style="stroke:none"
         id="path5634"
         clip-path="url(#clipPath8)"
         inkscape:connector-curvature="0" />
      <path
         d="m 4.6094,26.0469 q 0,-1.5313 0.4531,-2.5625 Q 5.4062,22.7188 6,22.1094 6.5938,21.5 7.2969,21.2031 q 0.9375,-0.3906 2.1562,-0.3906 2.2188,0 3.5469,1.375 1.3281,1.375 1.3281,3.8125 0,2.4219 -1.3203,3.7969 -1.3203,1.375 -3.5234,1.375 -2.2344,0 -3.5547,-1.3672 -1.3203,-1.3672 -1.3203,-3.7578 z m 2.0781,-0.0625 q 0,1.7031 0.7891,2.5781 0.789,0.875 1.9922,0.875 1.2187,0 1.9921,-0.8672 0.7735,-0.8672 0.7735,-2.6172 0,-1.7187 -0.75,-2.5703 -0.75,-0.8516 -2.0156,-0.8516 -1.25,0 -2.0157,0.8594 -0.7656,0.8594 -0.7656,2.5938 z m 9.124,5.0156 0,-10.0156 1.9219,0 0,3.6094 q 0.8906,-1.0157 2.1094,-1.0157 1.3281,0 2.1953,0.961 0.8672,0.9609 0.8672,2.7578 0,1.8593 -0.8907,2.8672 -0.8906,1.0078 -2.1406,1.0078 -0.625,0 -1.2344,-0.3125 -0.6093,-0.3125 -1.0468,-0.9219 l 0,1.0625 -1.7813,0 z m 1.9063,-3.7812 q 0,1.125 0.3593,1.6562 0.5,0.7656 1.3282,0.7656 0.625,0 1.0781,-0.539 0.4531,-0.5391 0.4531,-1.711 0,-1.25 -0.4531,-1.7968 -0.4531,-0.5469 -1.1563,-0.5469 -0.6875,0 -1.1484,0.539 -0.4609,0.5391 -0.4609,1.6329 z m 6.6924,-4.4688 0,-1.7656 1.9218,0 0,1.7656 -1.9218,0 z m 1.9218,0.9844 0,7.0468 q 0,1.375 -0.1875,1.9454 -0.1875,0.5703 -0.7031,0.8984 -0.5156,0.3281 -1.3125,0.3281 -0.2812,0 -0.6172,-0.0547 -0.3359,-0.0546 -0.7109,-0.164 l 0.3281,-1.6406 q 0.1406,0.0312 0.2578,0.0468 0.1172,0.0156 0.2266,0.0156 0.2969,0 0.4844,-0.125 0.1875,-0.125 0.25,-0.3046 0.0625,-0.1797 0.0625,-1.0547 l 0,-6.9375 1.9218,0 z m 6.2022,4.9531 1.9219,0.3281 q -0.375,1.0469 -1.1719,1.6016 -0.7969,0.5547 -1.9844,0.5547 -1.8906,0 -2.8125,-1.25 -0.7187,-0.9844 -0.7187,-2.5 0,-1.7969 0.9453,-2.8203 0.9453,-1.0235 2.3984,-1.0235 1.6094,0 2.5469,1.0703 0.9375,1.0704 0.8906,3.2735 l -4.8125,0 q 0.0313,0.8593 0.4766,1.3359 0.4453,0.4766 1.1015,0.4766 0.4532,0 0.7578,-0.25 0.3047,-0.25 0.461,-0.7969 z M 32.6436,26.75 q -0.0157,-0.8438 -0.4219,-1.2734 -0.4063,-0.4297 -1,-0.4297 -0.625,0 -1.0469,0.4531 -0.4062,0.4688 -0.3906,1.25 l 2.8594,0 z m 9.8017,-0.8594 -1.8906,0.3438 q -0.0938,-0.5782 -0.4297,-0.8594 -0.3359,-0.2812 -0.8828,-0.2812 -0.7188,0 -1.1406,0.4921 -0.4219,0.4922 -0.4219,1.6485 0,1.2968 0.4297,1.8281 0.4297,0.5313 1.164,0.5313 0.5469,0 0.8985,-0.3126 0.3515,-0.3124 0.4922,-1.0624 l 1.8906,0.3124 q -0.2969,1.3126 -1.1328,1.9766 -0.836,0.6641 -2.2422,0.6641 -1.5938,0 -2.5391,-1.0078 -0.9453,-1.0079 -0.9453,-2.7891 0,-1.7969 0.9531,-2.7969 0.9532,-1 2.5782,-1 1.3125,0 2.1015,0.5703 0.7891,0.5704 1.1172,1.7422 z m 4.7861,-2.1562 0,1.5312 -1.3125,0 0,2.9375 q 0,0.875 0.0391,1.0235 0.0391,0.1484 0.1719,0.25 0.1328,0.1015 0.3359,0.1015 0.2656,0 0.7656,-0.1875 l 0.1563,1.4844 q -0.6563,0.2969 -1.5156,0.2969 -0.5157,0 -0.9297,-0.1797 -0.4141,-0.1797 -0.6094,-0.4531 -0.1953,-0.2735 -0.2734,-0.7422 -0.0625,-0.3438 -0.0625,-1.3594 l 0,-3.1719 -0.875,0 0,-1.5312 0.875,0 0,-1.4375 1.9218,-1.125 0,2.5625 1.3125,0 z"
         style="stroke:none"
         id="path5636"
         clip-path="url(#clipPath8)"
         inkscape:connector-curvature="0" />
    </g>
    <g
       transform="translate(353,202)"
       style="font-size:14px;font-family:Arial;color-interpolation:linearRGB;fill:#ffffff;stroke:#ffffff;color-rendering:optimizeQuality;image-rendering:optimizeQuality;text-rendering:optimizeLegibility"
       id="g5638">
      <path
         d="m 1.0625,14 0,-10.0156 1.3594,0 5.2656,7.8594 0,-7.8594 1.2813,0 0,10.0156 -1.3594,0 -5.2656,-7.875 0,7.875 -1.2813,0 z m 14.9385,-2.3438 1.2812,0.1563 q -0.3125,1.125 -1.125,1.7422 -0.8125,0.6172 -2.0781,0.6172 -1.5937,0 -2.5234,-0.9844 -0.9297,-0.9844 -0.9297,-2.75 0,-1.8437 0.9453,-2.8516 0.9453,-1.0078 2.4453,-1.0078 1.4531,0 2.375,0.9922 0.9219,0.9922 0.9219,2.7891 0,0.1094 0,0.3281 l -5.4219,0 q 0.0781,1.1875 0.6797,1.8281 0.6016,0.6406 1.5234,0.6406 0.6719,0 1.1485,-0.3593 0.4765,-0.3594 0.7578,-1.1407 z m -4.0313,-1.9843 4.0469,0 Q 15.9385,8.75 15.5479,8.2969 14.9697,7.5938 14.0322,7.5938 q -0.8593,0 -1.4297,0.5624 -0.5703,0.5626 -0.6328,1.5157 z M 20.1621,14 17.9434,6.7344 l 1.2656,0 1.1562,4.2031 0.4375,1.5469 q 0.0157,-0.1094 0.375,-1.5 l 1.1563,-4.25 1.25,0 1.0937,4.2187 0.3594,1.3907 0.4219,-1.4063 1.25,-4.2031 1.1875,0 L 25.6309,14 24.3496,14 23.1934,9.6562 22.9121,8.4219 21.4434,14 20.1621,14 Z m 15.3594,0 0,-8.8438 -3.2969,0 0,-1.1718 7.9375,0 0,1.1718 -3.3125,0 0,8.8438 -1.3281,0 z m 10.8174,-2.3438 1.2812,0.1563 q -0.3125,1.125 -1.125,1.7422 -0.8125,0.6172 -2.0781,0.6172 -1.5938,0 -2.5234,-0.9844 -0.9297,-0.9844 -0.9297,-2.75 0,-1.8437 0.9453,-2.8516 0.9453,-1.0078 2.4453,-1.0078 1.4531,0 2.375,0.9922 0.9219,0.9922 0.9219,2.7891 0,0.1094 0,0.3281 l -5.4219,0 q 0.0781,1.1875 0.6797,1.8281 0.6015,0.6406 1.5234,0.6406 0.6719,0 1.1485,-0.3593 0.4765,-0.3594 0.7578,-1.1407 z m -4.0313,-1.9843 4.0469,0 Q 46.2764,8.75 45.8857,8.2969 45.3076,7.5938 44.3701,7.5938 q -0.8594,0 -1.4297,0.5624 -0.5703,0.5626 -0.6328,1.5157 z M 48.3438,14 l 2.6406,-3.7812 -2.4532,-3.4844 1.5469,0 1.1094,1.7031 Q 51.5,8.9219 51.6875,9.25 52,8.7969 52.25,8.4531 l 1.2188,-1.7187 1.4687,0 -2.5,3.4218 2.6875,3.8438 -1.5,0 -1.5,-2.25 L 51.7344,11.1406 49.8281,14 48.3438,14 Z m 10.5,-1.0938 0.1718,1.0782 q -0.5156,0.1094 -0.9218,0.1094 -0.6719,0 -1.0391,-0.211 -0.3672,-0.2109 -0.5156,-0.5547 -0.1485,-0.3437 -0.1485,-1.4531 l 0,-4.1719 -0.9062,0 0,-0.9687 0.9062,0 0,-1.7969 1.2188,-0.7344 0,2.5313 1.2344,0 0,0.9687 -1.2344,0 0,4.2344 q 0,0.5313 0.0625,0.6797 0.0625,0.1484 0.2109,0.2422 0.1484,0.0937 0.4141,0.0937 0.2187,0 0.5469,-0.0469 z"
         style="stroke:none"
         id="path5640"
         clip-path="url(#clipPath9)"
         inkscape:connector-curvature="0" />
    </g>
    <g
       transform="translate(361,109)"
       style="color-interpolation:linearRGB;fill:#ad0c03;stroke:#ad0c03;color-rendering:optimizeQuality;image-rendering:optimizeQuality;text-rendering:geometricPrecision"
       id="g5642">
      <path
         d="M 22.5709,0 77.4292,0 100,31 77.4292,62 22.5709,62 0,31 Z"
         style="stroke:none"
         id="path5644"
         clip-path="url(#clipPath10)"
         inkscape:connector-curvature="0" />
    </g>
    <g
       transform="translate(361,109)"
       style="color-interpolation:linearRGB;stroke-width:2;stroke-linecap:butt;color-rendering:optimizeQuality;image-rendering:optimizeQuality;text-rendering:geometricPrecision"
       id="g5646">
      <path
         d="M 22.5709,0 77.4292,0 100,31 77.4292,62 22.5709,62 0,31 Z"
         style="fill:none"
         id="path5648"
         clip-path="url(#clipPath10)"
         inkscape:connector-curvature="0" />
    </g>
    <g
       style="font-weight:bold;font-size:14px;font-family:Arial;color-interpolation:linearRGB;fill:#ffffff;stroke:#ffffff;stroke-width:2;stroke-linecap:butt;color-rendering:optimizeQuality;image-rendering:optimizeQuality;text-rendering:optimizeLegibility"
       transform="translate(380.5,131.5)"
       id="g5650">
      <path
         d="m 1.0156,14 0,-10.0156 7.4375,0 0,1.6875 -5.4062,0 0,2.2187 5.0312,0 0,1.6875 -5.0312,0 0,2.7344 5.5937,0 0,1.6875 -7.625,0 z m 8.4004,0 2.625,-3.7344 -2.5156,-3.5312 2.3437,0 1.2969,2 1.3438,-2 2.2656,0 -2.4688,3.4375 2.6875,3.8281 -2.3593,0 -1.4688,-2.25 -1.5,2.25 -2.25,0 z m 12.9111,-2.3125 1.9219,0.3281 q -0.375,1.0469 -1.1719,1.6016 -0.7968,0.5547 -1.9843,0.5547 -1.8907,0 -2.8125,-1.25 -0.7188,-0.9844 -0.7188,-2.5 0,-1.7969 0.9453,-2.8203 0.9453,-1.0235 2.3985,-1.0235 1.6093,0 2.5468,1.0703 0.9375,1.0704 0.8907,3.2735 l -4.8125,0 q 0.0312,0.8593 0.4765,1.3359 0.4453,0.4766 1.1016,0.4766 0.4531,0 0.7578,-0.25 0.3047,-0.25 0.4609,-0.7969 z M 22.4365,9.75 q -0.0156,-0.8438 -0.4219,-1.2734 -0.4062,-0.4297 -1,-0.4297 -0.625,0 -1.0468,0.4531 -0.4063,0.4688 -0.3907,1.25 l 2.8594,0 z M 32.2383,8.8906 30.3477,9.2344 Q 30.2539,8.6562 29.918,8.375 29.582,8.0938 29.0352,8.0938 q -0.7188,0 -1.1407,0.4921 -0.4218,0.4922 -0.4218,1.6485 0,1.2968 0.4296,1.8281 0.4297,0.5313 1.1641,0.5313 0.5469,0 0.8984,-0.3126 0.3516,-0.3124 0.4922,-1.0624 l 1.8907,0.3124 q -0.2969,1.3126 -1.1329,1.9766 -0.8359,0.6641 -2.2421,0.6641 -1.5938,0 -2.5391,-1.0078 -0.9453,-1.0079 -0.9453,-2.7891 0,-1.7969 0.9531,-2.7969 0.9531,-1 2.5781,-1 1.3125,0 2.1016,0.5703 0.7891,0.5704 1.1172,1.7422 z M 38.4775,14 l 0,-1.0938 q -0.3906,0.5938 -1.039,0.9297 -0.6485,0.336 -1.3672,0.336 -0.7344,0 -1.3125,-0.3281 -0.5781,-0.3282 -0.8359,-0.9063 -0.2579,-0.5781 -0.2579,-1.6094 l 0,-4.5937 1.9219,0 0,3.3437 q 0,1.5313 0.1016,1.875 0.1015,0.3438 0.3828,0.5469 0.2812,0.2031 0.7187,0.2031 0.4844,0 0.875,-0.2734 0.3907,-0.2735 0.5313,-0.6719 0.1406,-0.3984 0.1406,-1.9609 l 0,-3.0625 1.9219,0 0,7.2656 -1.7813,0 z m 7.0987,-7.2656 0,1.5312 -1.3125,0 0,2.9375 q 0,0.875 0.039,1.0235 0.0391,0.1484 0.1719,0.25 0.1328,0.1015 0.3359,0.1015 0.2657,0 0.7657,-0.1875 l 0.1562,1.4844 q -0.6562,0.2969 -1.5156,0.2969 -0.5156,0 -0.9297,-0.1797 -0.4141,-0.1797 -0.6094,-0.4531 -0.1953,-0.2735 -0.2734,-0.7422 -0.0625,-0.3438 -0.0625,-1.3594 l 0,-3.1719 -0.875,0 0,-1.5312 0.875,0 0,-1.4375 1.9219,-1.125 0,2.5625 1.3125,0 z m 0.8965,3.5312 q 0,-0.9531 0.4687,-1.8515 0.4688,-0.8985 1.3359,-1.3672 0.8672,-0.4688 1.9297,-0.4688 1.6563,0 2.7032,1.0703 1.0468,1.0704 1.0468,2.6954 0,1.6562 -1.0625,2.7421 -1.0625,1.086 -2.6718,1.086 -1,0 -1.9063,-0.4531 -0.9062,-0.4532 -1.375,-1.3282 -0.4687,-0.875 -0.4687,-2.125 z m 1.9687,0.1094 q 0,1.0781 0.5156,1.6484 0.5157,0.5704 1.2657,0.5704 0.75,0 1.2578,-0.5704 0.5078,-0.5703 0.5078,-1.664 0,-1.0625 -0.5078,-1.6406 -0.5078,-0.5782 -1.2578,-0.5782 -0.75,0 -1.2657,0.5782 -0.5156,0.5781 -0.5156,1.6562 z m 8.8643,3.625 -1.9219,0 0,-7.2656 1.7812,0 0,1.0312 q 0.4688,-0.7187 0.8282,-0.9531 0.3593,-0.2344 0.8281,-0.2344 0.6562,0 1.2656,0.3594 l -0.5937,1.6719 q -0.4844,-0.3125 -0.9063,-0.3125 -0.4062,0 -0.6797,0.2265 -0.2734,0.2266 -0.4375,0.8047 -0.164,0.5781 -0.164,2.4219 l 0,2.25 z"
         style="stroke:none"
         id="path5652"
         clip-path="url(#clipPath11)"
         inkscape:connector-curvature="0" />
    </g>
    <g
       transform="translate(205,119)"
       style="color-interpolation:linearRGB;fill:#bde5f2;stroke:#bde5f2;color-rendering:optimizeQuality;image-rendering:optimizeQuality;text-rendering:geometricPrecision"
       id="g5654">
      <ellipse
         style="stroke:none"
         rx="43.5"
         cx="43.5"
         ry="23"
         cy="23"
         id="ellipse5656"
         clip-path="url(#clipPath12)" />
    </g>
    <g
       transform="translate(205,119)"
       style="color-interpolation:linearRGB;stroke-width:2;stroke-linecap:butt;color-rendering:optimizeQuality;image-rendering:optimizeQuality;text-rendering:geometricPrecision"
       id="g5658">
      <ellipse
         style="fill:none"
         rx="43.5"
         cx="43.5"
         ry="23"
         cy="23"
         id="ellipse5660"
         clip-path="url(#clipPath12)" />
    </g>
    <g
       transform="translate(218.5,133.5)"
       style="font-weight:bold;font-size:14px;font-family:Arial;color-interpolation:linearRGB;stroke-width:2;stroke-linecap:butt;color-rendering:optimizeQuality;image-rendering:optimizeQuality;text-rendering:optimizeLegibility"
       id="g5662">
      <path
         d="M 2.4375,14 0.0469,3.9844 l 2.0781,0 1.5,6.875 1.8438,-6.875 2.4062,0 1.75,7 1.5312,-7 2.0469,0 L 10.7656,14 8.625,14 6.625,6.5 4.6406,14 2.4375,14 Z m 15.9795,-2.3125 1.9219,0.3281 q -0.375,1.0469 -1.1719,1.6016 -0.7969,0.5547 -1.9844,0.5547 -1.8906,0 -2.8125,-1.25 -0.7187,-0.9844 -0.7187,-2.5 0,-1.7969 0.9453,-2.8203 0.9453,-1.0235 2.3984,-1.0235 1.6094,0 2.5469,1.0703 0.9375,1.0704 0.8906,3.2735 l -4.8125,0 q 0.0313,0.8593 0.4766,1.3359 0.4453,0.4766 1.1015,0.4766 0.4532,0 0.7579,-0.25 0.3046,-0.25 0.4609,-0.7969 z M 18.5264,9.75 q -0.0157,-0.8438 -0.4219,-1.2734 -0.4063,-0.4297 -1,-0.4297 -0.625,0 -1.0469,0.4531 -0.4062,0.4688 -0.3906,1.25 l 2.8594,0 z M 23.4375,8.9531 21.7031,8.6406 q 0.2813,-1.0468 1,-1.5547 0.7188,-0.5078 2.1407,-0.5078 1.2812,0 1.914,0.3047 0.6328,0.3047 0.8828,0.7734 0.25,0.4688 0.25,1.7188 l -0.0156,2.2344 q 0,0.9687 0.0938,1.4218 0.0937,0.4532 0.3437,0.9688 l -1.8906,0 q -0.0781,-0.1875 -0.1875,-0.5625 -0.0469,-0.1719 -0.0782,-0.2344 -0.4843,0.4844 -1.0468,0.7266 -0.5625,0.2422 -1.2032,0.2422 -1.1093,0 -1.7578,-0.6094 Q 21.5,12.9531 21.5,12.0156 q 0,-0.6094 0.2969,-1.0937 0.2969,-0.4844 0.8203,-0.7422 0.5234,-0.2578 1.5234,-0.4453 1.3438,-0.25 1.875,-0.4688 l 0,-0.1875 q 0,-0.5625 -0.2734,-0.7969 -0.2734,-0.2343 -1.0391,-0.2343 -0.5156,0 -0.7969,0.2031 -0.2812,0.2031 -0.4687,0.7031 z m 2.5781,1.5625 q -0.375,0.125 -1.1718,0.2969 -0.7969,0.1719 -1.0469,0.3281 -0.375,0.2656 -0.375,0.6719 0,0.4063 0.2969,0.7031 0.2968,0.2969 0.7656,0.2969 0.5156,0 1,-0.3437 0.3437,-0.2657 0.4531,-0.6407 0.0781,-0.2343 0.0781,-0.9375 l 0,-0.375 z m 3.708,3.4844 0,-10.0156 1.9219,0 0,5.3125 2.25,-2.5625 2.3594,0 -2.4844,2.6562 2.6719,4.6094 -2.0781,0 -1.8282,-3.2656 -0.8906,0.9375 0,2.3281 -1.9219,0 z m 7.8799,0 0,-10.0156 4.25,0 q 1.6094,0 2.336,0.2656 0.7265,0.2656 1.164,0.9609 0.4375,0.6953 0.4375,1.5703 0,1.1407 -0.664,1.875 -0.6641,0.7344 -1.9766,0.9219 0.6562,0.375 1.0859,0.836 0.4297,0.4609 1.1485,1.6328 L 46.6035,14 44.1816,14 42.7285,11.8125 Q 41.9473,10.6562 41.6582,10.3516 41.3691,10.0469 41.0488,9.9297 40.7285,9.8125 40.0254,9.8125 l -0.4063,0 0,4.1875 -2.0156,0 z m 2.0156,-5.7812 1.5,0 q 1.4532,0 1.8204,-0.125 0.3671,-0.125 0.5703,-0.4219 0.2031,-0.2969 0.2031,-0.75 0,-0.5157 -0.2734,-0.8203 Q 43.166,5.7969 42.6816,5.7031 42.4316,5.6719 41.1973,5.6719 l -1.5782,0 0,2.5469 z m 12.2666,3.4687 1.9219,0.3281 q -0.375,1.0469 -1.1719,1.6016 -0.7968,0.5547 -1.9843,0.5547 -1.8907,0 -2.8125,-1.25 -0.7188,-0.9844 -0.7188,-2.5 0,-1.7969 0.9453,-2.8203 0.9453,-1.0235 2.3985,-1.0235 1.6093,0 2.5468,1.0703 0.9375,1.0704 0.8907,3.2735 l -4.8125,0 q 0.0312,0.8593 0.4765,1.3359 0.4453,0.4766 1.1016,0.4766 0.4531,0 0.7578,-0.25 0.3047,-0.25 0.4609,-0.7969 z M 51.9951,9.75 q -0.0156,-0.8438 -0.4219,-1.2734 -0.4062,-0.4297 -1,-0.4297 -0.625,0 -1.0468,0.4531 -0.4063,0.4688 -0.3907,1.25 l 2.8594,0 z m 2.6455,-3.0156 1.0625,0 0,-0.5469 q 0,-0.9063 0.1953,-1.3594 0.1954,-0.4531 0.7188,-0.7343 0.5234,-0.2813 1.3203,-0.2813 0.8125,0 1.6094,0.2344 l -0.2657,1.3437 q -0.4531,-0.1094 -0.875,-0.1094 -0.4218,0 -0.6015,0.1954 -0.1797,0.1953 -0.1797,0.7578 l 0,0.5 1.4375,0 0,1.5156 -1.4375,0 0,5.75 -1.9219,0 0,-5.75 -1.0625,0 0,-1.5156 z"
         style="stroke:none"
         id="path5664"
         clip-path="url(#clipPath13)"
         inkscape:connector-curvature="0" />
    </g>
    <g
       transform="matrix(-0.93256785,-0.36099476,0.36099476,-0.93256785,259.55462,120.36749)"
       style="color-interpolation:linearRGB;fill:#404040;stroke:#404040;stroke-width:2;stroke-linecap:butt;color-rendering:optimizeQuality;image-rendering:optimizeQuality;text-rendering:geometricPrecision"
       id="g5666">
      <path
         d="M 2.5,0 0,6.5 l 5,0 z"
         style="stroke:none"
         id="path5668"
         clip-path="url(#clipPath14)"
         inkscape:connector-curvature="0" />
      <path
         d="M 2.5,0 0,6.5 l 5,0 z"
         style="fill:none"
         id="path5670"
         clip-path="url(#clipPath14)"
         inkscape:connector-curvature="0" />
    </g>
    <g
       style="color-interpolation:linearRGB;fill:#404040;stroke:#404040;stroke-width:2;stroke-linecap:butt;color-rendering:optimizeQuality;image-rendering:optimizeQuality;text-rendering:geometricPrecision"
       id="g5672">
      <line
         x1="278.69351"
         x2="257.22321"
         y1="64"
         style="fill:none"
         y2="119.465"
         id="line5674"
         clip-path="url(#clipPath1)" />
    </g>
    <g
       transform="matrix(0.01230601,0.99992428,-0.99992428,0.01230601,361.41333,138.11009)"
       style="color-interpolation:linearRGB;fill:#404040;stroke:#404040;stroke-width:2;stroke-linecap:butt;color-rendering:optimizeQuality;image-rendering:optimizeQuality;text-rendering:geometricPrecision"
       id="g5676">
      <path
         d="M 2.5,0 0,6.5 l 5,0 z"
         style="stroke:none"
         id="path5678"
         clip-path="url(#clipPath15)"
         inkscape:connector-curvature="0" />
      <path
         d="M 2.5,0 0,6.5 l 5,0 z"
         style="fill:none"
         id="path5680"
         clip-path="url(#clipPath15)"
         inkscape:connector-curvature="0" />
    </g>
    <g
       style="color-interpolation:linearRGB;fill:#404040;stroke:#404040;stroke-width:2;stroke-linecap:butt;color-rendering:optimizeQuality;image-rendering:optimizeQuality;text-rendering:geometricPrecision"
       id="g5682">
      <line
         x1="291.89819"
         x2="361.44409"
         y1="141.4659"
         style="fill:none"
         y2="140.60989"
         id="line5684"
         clip-path="url(#clipPath1)" />
    </g>
    <g
       transform="matrix(-0.83921957,0.54379271,-0.54379271,-0.83921957,333.53885,268.64052)"
       style="color-interpolation:linearRGB;fill:#404040;stroke:#404040;stroke-width:2;stroke-linecap:butt;color-rendering:optimizeQuality;image-rendering:optimizeQuality;text-rendering:geometricPrecision"
       id="g5686">
      <path
         d="M 2.5,0 0,6.5 l 5,0 z"
         style="stroke:none"
         id="path5688"
         clip-path="url(#clipPath16)"
         inkscape:connector-curvature="0" />
      <path
         d="M 2.5,0 0,6.5 l 5,0 z"
         style="fill:none"
         id="path5690"
         clip-path="url(#clipPath16)"
         inkscape:connector-curvature="0" />
    </g>
    <g
       style="color-interpolation:linearRGB;fill:#404040;stroke:#404040;stroke-width:2;stroke-linecap:butt;color-rendering:optimizeQuality;image-rendering:optimizeQuality;text-rendering:geometricPrecision"
       id="g5692">
      <line
         x1="262.53989"
         x2="331.4408"
         y1="163.6673"
         style="fill:none"
         y2="270"
         id="line5694"
         clip-path="url(#clipPath1)" />
    </g>
    <g
       transform="matrix(-0.88594064,-0.46379864,0.46379864,-0.88594064,182.65845,273.1595)"
       style="color-interpolation:linearRGB;fill:#404040;stroke:#404040;stroke-width:2;stroke-linecap:butt;color-rendering:optimizeQuality;image-rendering:optimizeQuality;text-rendering:geometricPrecision"
       id="g5696">
      <path
         d="M 2.5,0 0,6.5 l 5,0 z"
         style="stroke:none"
         id="path5698"
         clip-path="url(#clipPath17)"
         inkscape:connector-curvature="0" />
      <path
         d="M 2.5,0 0,6.5 l 5,0 z"
         style="fill:none"
         id="path5700"
         clip-path="url(#clipPath17)"
         inkscape:connector-curvature="0" />
    </g>
    <g
       style="color-interpolation:linearRGB;fill:#404040;stroke:#404040;stroke-width:2;stroke-linecap:butt;stroke-linejoin:bevel;stroke-dasharray:2, 2;color-rendering:optimizeQuality;image-rendering:optimizeQuality;text-rendering:geometricPrecision"
       id="g5702">
      <line
         x1="236.9436"
         x2="180.4436"
         y1="164.0748"
         style="fill:none"
         y2="272"
         id="line5704"
         clip-path="url(#clipPath1)" />
    </g>
    <g
       transform="matrix(-0.87914835,0.47654818,-0.47654818,-0.87914835,151.20727,270.80863)"
       style="color-interpolation:linearRGB;fill:#404040;stroke:#404040;stroke-width:2;stroke-linecap:butt;color-rendering:optimizeQuality;image-rendering:optimizeQuality;text-rendering:geometricPrecision"
       id="g5706">
      <path
         d="M 2.5,0 0,6.5 l 5,0 z"
         style="stroke:none"
         id="path5708"
         clip-path="url(#clipPath18)"
         inkscape:connector-curvature="0" />
      <path
         d="M 2.5,0 0,6.5 l 5,0 z"
         style="fill:none"
         id="path5710"
         clip-path="url(#clipPath18)"
         inkscape:connector-curvature="0" />
    </g>
    <g
       style="color-interpolation:linearRGB;fill:#404040;stroke:#404040;stroke-width:2;stroke-linecap:butt;color-rendering:optimizeQuality;image-rendering:optimizeQuality;text-rendering:geometricPrecision"
       id="g5712">
      <line
         x1="66.616798"
         x2="149.0094"
         y1="120"
         style="fill:none"
         y2="272"
         id="line5714"
         clip-path="url(#clipPath1)" />
    </g>
    <g
       transform="translate(64.8131,182)"
       style="color-interpolation:linearRGB;fill:#ffffff;stroke:#ffffff;stroke-width:2;stroke-linecap:butt;color-rendering:optimizeQuality;image-rendering:optimizeQuality;text-rendering:geometricPrecision"
       id="g5716">
      <rect
         x="0"
         y="0"
         width="86"
         style="stroke:none"
         height="28"
         id="rect5718"
         clip-path="url(#clipPath19)" />
    </g>
    <g
       transform="translate(64.8131,182)"
       style="font-size:11px;font-family:Arial;color-interpolation:linearRGB;fill:#404040;stroke:#404040;stroke-width:2;stroke-linecap:butt;color-rendering:optimizeQuality;image-rendering:optimizeQuality;text-rendering:optimizeLegibility"
       id="g5720">
      <path
         d="m 2.8594,11 0,-6.9375 -2.5938,0 0,-0.9375 6.2344,0 0,0.9375 -2.6094,0 0,6.9375 -1.0312,0 z m 4.7348,0 0,-7.875 1.0469,0 0,3.2344 4.0938,0 0,-3.2344 1.0468,0 0,7.875 -1.0468,0 0,-3.7188 -4.0938,0 0,3.7188 -1.0469,0 z m 8.1001,0 0,-7.875 1.0313,0 0,7.875 -1.0313,0 z m 2.5249,-2.5312 0.9844,-0.0782 q 0.0625,0.5782 0.3203,0.961 0.2578,0.3828 0.7891,0.6172 0.5312,0.2343 1.2031,0.2343 0.6094,0 1.0625,-0.1797 0.4531,-0.1796 0.6797,-0.4843 0.2266,-0.3047 0.2266,-0.6797 0,-0.375 -0.2188,-0.6485 Q 23.0474,7.9375 22.5474,7.75 22.2349,7.625 21.1489,7.3672 20.063,7.1094 19.6255,6.875 19.063,6.5781 18.7896,6.1406 18.5161,5.7031 18.5161,5.1562 q 0,-0.5937 0.336,-1.1093 0.3359,-0.5157 0.9843,-0.7891 0.6485,-0.2734 1.4453,-0.2734 0.875,0 1.5469,0.289 0.6719,0.2891 1.0313,0.836 0.3593,0.5468 0.3906,1.2344 l -1,0.0781 q -0.0781,-0.75 -0.5469,-1.1328 -0.4687,-0.3829 -1.375,-0.3829 -0.9375,0 -1.375,0.3516 -0.4375,0.3516 -0.4375,0.836 0,0.4218 0.3125,0.7031 0.2969,0.2656 1.5703,0.5547 1.2735,0.289 1.7422,0.5078 0.6875,0.3125 1.0156,0.7968 0.3282,0.4844 0.3282,1.125 0,0.625 -0.3594,1.1797 -0.3594,0.5547 -1.0391,0.8672 -0.6797,0.3125 -1.5234,0.3125 -1.0625,0 -1.7813,-0.3125 Q 19.063,10.5156 18.6489,9.8906 18.2349,9.2656 18.2192,8.4688 Z M 28.9717,11 l 0,-7.875 3.5,0 q 1.0469,0 1.5937,0.2109 0.5469,0.211 0.875,0.75 0.3282,0.5391 0.3282,1.1953 0,0.8282 -0.5391,1.4063 -0.5391,0.5781 -1.6797,0.7344 0.4219,0.1875 0.625,0.3906 0.4688,0.4219 0.875,1.0469 L 35.9092,11 34.6123,11 33.5654,9.3594 Q 33.1123,8.6562 32.8154,8.2812 32.5186,7.9062 32.2842,7.75 32.0498,7.5938 31.8154,7.5469 31.6279,7.5 31.2217,7.5 l -1.2031,0 0,3.5 -1.0469,0 z m 1.0469,-4.4062 2.2343,0 q 0.7188,0 1.125,-0.1407 0.4063,-0.1406 0.6094,-0.4687 0.2031,-0.3282 0.2031,-0.7032 0,-0.5624 -0.3984,-0.9218 Q 33.3936,4 32.5186,4 l -2.5,0 0,2.5938 z M 36.9312,11 l 0,-7.875 5.6875,0 0,0.9375 -4.6563,0 0,2.4063 4.3594,0 0,0.9218 -4.3594,0 0,2.6875 4.8438,0 0,0.9219 -5.875,0 z m 7.3681,0 0,-7.875 5.3125,0 0,0.9375 -4.2812,0 0,2.4375 3.7031,0 0,0.9219 -3.7031,0 0,3.5781 -1.0313,0 z m 6.688,0 0,-7.875 5.6875,0 0,0.9375 -4.6562,0 0,2.4063 4.3593,0 0,0.9218 -4.3593,0 0,2.6875 4.8437,0 0,0.9219 -5.875,0 z m 7.3213,0 0,-7.875 3.5,0 q 1.0469,0 1.5937,0.2109 0.5469,0.211 0.875,0.75 0.3282,0.5391 0.3282,1.1953 0,0.8282 -0.5391,1.4063 -0.5391,0.5781 -1.6797,0.7344 0.4219,0.1875 0.625,0.3906 0.4688,0.4219 0.875,1.0469 L 65.2461,11 63.9492,11 62.9023,9.3594 Q 62.4492,8.6562 62.1523,8.2812 61.8555,7.9062 61.6211,7.75 61.3867,7.5938 61.1523,7.5469 60.9648,7.5 60.5586,7.5 l -1.2031,0 0,3.5 -1.0469,0 z m 1.0469,-4.4062 2.2343,0 q 0.7188,0 1.125,-0.1407 0.4063,-0.1406 0.6094,-0.4687 0.2031,-0.3282 0.2031,-0.7032 0,-0.5624 -0.3984,-0.9218 Q 62.7305,4 61.8555,4 l -2.5,0 0,2.5938 z M 66.2681,11 l 0,-7.875 5.6875,0 0,0.9375 -4.6563,0 0,2.4063 4.3594,0 0,0.9218 -4.3594,0 0,2.6875 4.8438,0 0,0.9219 -5.875,0 z m 7.3056,0 0,-7.875 1.0625,0 4.1407,6.1875 0,-6.1875 1,0 0,7.875 -1.0782,0 -4.125,-6.1875 0,6.1875 -1,0 z M 87.1426,8.2344 88.1895,8.5 q -0.3282,1.2812 -1.1797,1.9609 -0.8516,0.6797 -2.086,0.6797 -1.2812,0 -2.0781,-0.5234 Q 82.0488,10.0938 81.6348,9.1094 81.2207,8.125 81.2207,7 q 0,-1.2188 0.4688,-2.1406 0.4687,-0.9219 1.3359,-1.3985 0.8672,-0.4765 1.9141,-0.4765 1.1875,0 1.9921,0.6015 0.8047,0.6016 1.1172,1.6953 l -1.0312,0.25 Q 86.752,4.6719 86.2285,4.2812 85.7051,3.8906 84.9238,3.8906 84.002,3.8906 83.3926,4.3203 82.7832,4.75 82.541,5.4844 82.2988,6.2188 82.2988,7 q 0,1 0.2891,1.75 0.2891,0.75 0.9062,1.125 0.6172,0.375 1.336,0.375 0.875,0 1.4844,-0.5078 0.6093,-0.5078 0.8281,-1.5078 z M 89.4927,11 l 0,-7.875 5.6875,0 0,0.9375 -4.6563,0 0,2.4063 4.3594,0 0,0.9218 -4.3594,0 0,2.6875 4.8438,0 0,0.9219 -5.875,0 z"
         style="stroke:none"
         id="path5722"
         clip-path="url(#clipPath19)"
         inkscape:connector-curvature="0" />
      <path
         d="m 8.5312,21.9062 0,-0.9218 3.3438,0 0,2.9218 q -0.7812,0.6094 -1.5938,0.9219 -0.8124,0.3125 -1.6718,0.3125 -1.1563,0 -2.1094,-0.5 -0.9531,-0.5 -1.4375,-1.4375 -0.4844,-0.9375 -0.4844,-2.1093 0,-1.1407 0.4844,-2.1407 0.4844,-1 1.3906,-1.4843 0.9063,-0.4844 2.0781,-0.4844 0.8438,0 1.5391,0.2812 0.6953,0.2813 1.0859,0.7735 0.3907,0.4921 0.5938,1.289 l -0.9375,0.25 Q 10.6406,18.9844 10.375,18.6406 10.1094,18.2969 9.6172,18.0938 9.125,17.8906 8.5312,17.8906 q -0.7187,0 -1.2343,0.211 -0.5157,0.2109 -0.836,0.5703 -0.3203,0.3593 -0.5078,0.7812 -0.2969,0.7344 -0.2969,1.5781 0,1.0626 0.3672,1.7657 0.3672,0.7031 1.0547,1.0469 0.6875,0.3437 1.4688,0.3437 0.6719,0 1.3203,-0.2578 0.6484,-0.2578 0.9766,-0.5547 l 0,-1.4688 -2.3126,0 z m 4.9,3.0938 0,-7.875 5.6875,0 0,0.9375 -4.6563,0 0,2.4063 4.3594,0 0,0.9218 -4.3594,0 0,2.6875 4.8438,0 0,0.9219 -5.875,0 z m 9.3212,0 0,-6.9375 -2.5937,0 0,-0.9375 6.2344,0 0,0.9375 -2.6094,0 0,6.9375 -1.0313,0 z m 4.3599,-2.5312 0.9844,-0.0782 q 0.0625,0.5782 0.3203,0.961 0.2578,0.3828 0.7891,0.6172 0.5312,0.2343 1.2031,0.2343 0.6094,0 1.0625,-0.1797 0.4531,-0.1796 0.6797,-0.4843 0.2265,-0.3047 0.2265,-0.6797 0,-0.375 -0.2187,-0.6485 -0.2188,-0.2734 -0.7188,-0.4609 -0.3125,-0.125 -1.3984,-0.3828 -1.0859,-0.2578 -1.5234,-0.4922 -0.5625,-0.2969 -0.836,-0.7344 -0.2734,-0.4375 -0.2734,-0.9844 0,-0.5937 0.3359,-1.1093 0.336,-0.5157 0.9844,-0.7891 0.6484,-0.2734 1.4453,-0.2734 0.875,0 1.5469,0.289 0.6719,0.2891 1.0312,0.836 0.3594,0.5468 0.3907,1.2344 l -1,0.0781 q -0.0782,-0.75 -0.5469,-1.1328 -0.4688,-0.3829 -1.375,-0.3829 -0.9375,0 -1.375,0.3516 -0.4375,0.3516 -0.4375,0.836 0,0.4218 0.3125,0.7031 0.2969,0.2656 1.5703,0.5547 1.2734,0.289 1.7422,0.5078 0.6875,0.3125 1.0156,0.7968 0.3281,0.4844 0.3281,1.125 0,0.625 -0.3593,1.1797 -0.3594,0.5547 -1.0391,0.8672 -0.6797,0.3125 -1.5234,0.3125 -1.0625,0 -1.7813,-0.3125 -0.7187,-0.3125 -1.1328,-0.9375 -0.4141,-0.625 -0.4297,-1.4218 z M 37.8491,25 l 0,-7.875 2.7188,0 q 0.9218,0 1.4062,0.1094 0.6719,0.1562 1.1563,0.5625 0.6093,0.5312 0.9218,1.3515 0.3125,0.8204 0.3125,1.8672 0,0.9063 -0.2109,1.5938 -0.2109,0.6875 -0.5391,1.1406 -0.3281,0.4531 -0.7187,0.7188 -0.3906,0.2656 -0.9375,0.3984 Q 41.4116,25 40.6929,25 l -2.8438,0 z m 1.0469,-0.9219 1.6875,0 q 0.7656,0 1.2109,-0.1484 0.4453,-0.1485 0.711,-0.4141 0.375,-0.375 0.5781,-1 0.2031,-0.625 0.2031,-1.5156 0,-1.2344 -0.4062,-1.8984 -0.4063,-0.6641 -0.9844,-0.8828 -0.4219,-0.1563 -1.3438,-0.1563 l -1.6562,0 0,6.0156 z M 45.8086,25 l 0,-7.875 3.5,0 q 1.0469,0 1.5937,0.2109 0.5469,0.211 0.875,0.75 0.3282,0.5391 0.3282,1.1953 0,0.8282 -0.5391,1.4063 -0.5391,0.5781 -1.6797,0.7344 0.4219,0.1875 0.625,0.3906 0.4688,0.4219 0.875,1.0469 L 52.7461,25 51.4492,25 50.4023,23.3594 Q 49.9492,22.6562 49.6523,22.2812 49.3555,21.9062 49.1211,21.75 48.8867,21.5938 48.6523,21.5469 48.4648,21.5 48.0586,21.5 l -1.2031,0 0,3.5 -1.0469,0 z m 1.0469,-4.4062 2.2343,0 q 0.7188,0 1.125,-0.1407 0.4063,-0.1406 0.6094,-0.4687 0.2031,-0.3282 0.2031,-0.7032 0,-0.5624 -0.3984,-0.9218 Q 50.2305,18 49.3555,18 l -2.5,0 0,2.5938 z m 6.5688,0.5781 q 0,-1.9688 1.0547,-3.0781 1.0547,-1.1094 2.7109,-1.1094 1.0938,0 1.9688,0.5234 0.875,0.5234 1.3359,1.4531 0.461,0.9297 0.461,2.1172 0,1.1875 -0.4844,2.1328 -0.4844,0.9453 -1.3672,1.4375 -0.8828,0.4922 -1.9141,0.4922 -1.1093,0 -1.9843,-0.539 -0.875,-0.5391 -1.3282,-1.4688 -0.4531,-0.9297 -0.4531,-1.9609 z m 1.0781,0.0156 q 0,1.4219 0.7657,2.2422 0.7656,0.8203 1.9218,0.8203 1.1719,0 1.9297,-0.8281 0.7578,-0.8281 0.7578,-2.3594 0,-0.9531 -0.3203,-1.6719 -0.3203,-0.7187 -0.9453,-1.1094 -0.625,-0.3906 -1.4062,-0.3906 -1.1094,0 -1.9063,0.7578 -0.7969,0.7578 -0.7969,2.5391 z M 62.293,25 l 0,-7.875 2.9687,0 q 0.7969,0 1.2031,0.0781 0.5782,0.0938 0.9688,0.3672 0.3906,0.2735 0.6328,0.7578 0.2422,0.4844 0.2422,1.0781 0,1 -0.6406,1.6954 -0.6407,0.6953 -2.3125,0.6953 l -2.0157,0 0,3.2031 -1.0468,0 z m 1.0468,-4.125 2.0313,0 q 1.0156,0 1.4375,-0.375 0.4219,-0.375 0.4219,-1.0625 0,-0.5 -0.25,-0.8516 -0.25,-0.3515 -0.6563,-0.4609 -0.2656,-0.0625 -0.9687,-0.0625 l -2.0157,0 0,2.8125 z m 6.2901,4.125 0,-7.875 2.9687,0 q 0.7969,0 1.2032,0.0781 0.5781,0.0938 0.9687,0.3672 0.3906,0.2735 0.6328,0.7578 0.2422,0.4844 0.2422,1.0781 0,1 -0.6406,1.6954 -0.6406,0.6953 -2.3125,0.6953 l -2.0156,0 0,3.2031 -1.0469,0 z m 1.0469,-4.125 2.0312,0 q 1.0156,0 1.4375,-0.375 0.4219,-0.375 0.4219,-1.0625 0,-0.5 -0.25,-0.8516 -0.25,-0.3515 -0.6563,-0.4609 -0.2656,-0.0625 -0.9687,-0.0625 l -2.0156,0 0,2.8125 z M 76.998,25 l 0,-7.875 5.6875,0 0,0.9375 -4.6562,0 0,2.4063 4.3594,0 0,0.9218 -4.3594,0 0,2.6875 4.8437,0 0,0.9219 -5.875,0 z m 7.3057,0 0,-7.875 2.7188,0 q 0.9218,0 1.4062,0.1094 0.6719,0.1562 1.1563,0.5625 0.6093,0.5312 0.9218,1.3515 0.3125,0.8204 0.3125,1.8672 0,0.9063 -0.2109,1.5938 -0.2109,0.6875 -0.5391,1.1406 -0.3281,0.4531 -0.7187,0.7188 Q 88.96,24.7344 88.4131,24.8672 87.8662,25 87.1475,25 l -2.8438,0 z m 1.0469,-0.9219 1.6875,0 q 0.7656,0 1.2109,-0.1484 0.4453,-0.1485 0.711,-0.4141 0.375,-0.375 0.5781,-1 0.2031,-0.625 0.2031,-1.5156 0,-1.2344 -0.4062,-1.8984 -0.4063,-0.6641 -0.9844,-0.8828 -0.4219,-0.1563 -1.3438,-0.1563 l -1.6562,0 0,6.0156 z"
         style="stroke:none"
         id="path5724"
         clip-path="url(#clipPath19)"
         inkscape:connector-curvature="0" />
    </g>
    <g
       transform="translate(5,55)"
       style="color-interpolation:linearRGB;fill:#e4e6d2;stroke:#e4e6d2;color-rendering:optimizeQuality;image-rendering:optimizeQuality;text-rendering:geometricPrecision"
       id="g5726">
      <rect
         x="0"
         y="0"
         width="88"
         style="stroke:none"
         rx="10"
         ry="10"
         height="65"
         id="rect5728"
         clip-path="url(#clipPath20)" />
    </g>
    <g
       transform="translate(5,55)"
       style="color-interpolation:linearRGB;fill:#8c8f72;stroke:#8c8f72;stroke-width:2;stroke-linecap:butt;color-rendering:optimizeQuality;image-rendering:optimizeQuality;text-rendering:geometricPrecision"
       id="g5730">
      <rect
         x="0"
         y="0"
         width="88"
         style="fill:none"
         rx="10"
         ry="10"
         height="65"
         id="rect5732"
         clip-path="url(#clipPath20)" />
    </g>
    <g
       transform="translate(28,79)"
       style="font-weight:bold;font-size:14px;font-family:Arial;color-interpolation:linearRGB;stroke-width:2;stroke-linecap:butt;color-rendering:optimizeQuality;image-rendering:optimizeQuality;text-rendering:optimizeLegibility"
       id="g5734">
      <path
         d="m 7.4375,10.3125 1.9531,0.625 q -0.4531,1.6406 -1.5,2.4375 -1.0468,0.7969 -2.6562,0.7969 -2,0 -3.2891,-1.3672 -1.2891,-1.3672 -1.2891,-3.7266 0,-2.5 1.2969,-3.8828 1.2969,-1.3828 3.4063,-1.3828 1.8281,0 2.9844,1.0781 0.6874,0.6406 1.0156,1.8438 l -2,0.4844 Q 7.1875,6.4375 6.625,5.9844 6.0625,5.5312 5.25,5.5312 4.1406,5.5312 3.4453,6.3359 2.75,7.1406 2.75,8.9219 q 0,1.9062 0.6797,2.7109 0.6797,0.8047 1.7734,0.8047 0.8125,0 1.3907,-0.5078 0.5781,-0.5078 0.8437,-1.6172 z M 11.1104,14 l 0,-10.0156 1.9218,0 0,10.0156 -1.9218,0 z M 15,5.75 l 0,-1.7656 1.9219,0 0,1.7656 -1.9219,0 z m 0,8.25 0,-7.2656 1.9219,0 0,7.2656 L 15,14 Z m 8.0928,-2.3125 1.9218,0.3281 q -0.375,1.0469 -1.1718,1.6016 -0.7969,0.5547 -1.9844,0.5547 -1.8906,0 -2.8125,-1.25 -0.7188,-0.9844 -0.7188,-2.5 0,-1.7969 0.9454,-2.8203 0.9453,-1.0235 2.3984,-1.0235 1.6094,0 2.5469,1.0703 0.9375,1.0704 0.8906,3.2735 l -4.8125,0 q 0.0312,0.8593 0.4766,1.3359 0.4453,0.4766 1.1015,0.4766 0.4531,0 0.7578,-0.25 0.3047,-0.25 0.461,-0.7969 z M 23.2021,9.75 q -0.0156,-0.8438 -0.4218,-1.2734 -0.4063,-0.4297 -1,-0.4297 -0.625,0 -1.0469,0.4531 -0.4063,0.4688 -0.3906,1.25 l 2.8593,0 z m 10.0831,4.25 -1.9219,0 0,-3.7031 q 0,-1.1719 -0.125,-1.5235 -0.125,-0.3515 -0.3985,-0.539 -0.2734,-0.1875 -0.664,-0.1875 -0.5,0 -0.8985,0.2734 Q 28.8789,8.5938 28.7305,9.0469 28.582,9.5 28.582,10.7188 l 0,3.2812 -1.9218,0 0,-7.2656 1.7968,0 0,1.0781 q 0.9375,-1.2344 2.3907,-1.2344 0.625,0 1.1562,0.2266 0.5313,0.2265 0.7969,0.5859 0.2656,0.3594 0.375,0.8047 0.1094,0.4453 0.1094,1.2891 l 0,4.5156 z m 5.2705,-7.2656 0,1.5312 -1.3125,0 0,2.9375 q 0,0.875 0.039,1.0235 0.0391,0.1484 0.1719,0.25 0.1328,0.1015 0.3359,0.1015 0.2657,0 0.7657,-0.1875 l 0.1562,1.4844 q -0.6562,0.2969 -1.5156,0.2969 -0.5156,0 -0.9297,-0.1797 -0.4141,-0.1797 -0.6094,-0.4531 -0.1953,-0.2735 -0.2734,-0.7422 -0.0625,-0.3438 -0.0625,-1.3594 l 0,-3.1719 -0.875,0 0,-1.5312 0.875,0 0,-1.4375 1.9219,-1.125 0,2.5625 1.3125,0 z"
         style="stroke:none"
         id="path5736"
         clip-path="url(#clipPath21)"
         inkscape:connector-curvature="0" />
    </g>
  </g>
</svg>
